<svg width="40" height="40" viewBox="0 0 40 40" fill="none" xmlns="http://www.w3.org/2000/svg">
<rect width="40" height="40" fill="black" fill-opacity="0"/>
<path d="M0 0H40V40H0V0Z" fill="#4D4D4A"/>
<path d="M13.8594 28V10.9375H19.8359C21.9062 10.9375 23.4766 11.3359 24.5469 12.1328C25.6172 12.9219 26.1523 14.082 26.1523 15.6133C26.1523 16.4492 25.9375 17.1875 25.5078 17.8281C25.0781 18.4609 24.4805 18.9258 23.7148 19.2227C24.5898 19.4414 25.2773 19.8828 25.7773 20.5469C26.2852 21.2109 26.5391 22.0234 26.5391 22.9844C26.5391 24.625 26.0156 25.8672 24.9688 26.7109C23.9219 27.5547 22.4297 27.9844 20.4922 28H13.8594ZM17.375 20.5703V25.1758H20.3867C21.2148 25.1758 21.8594 24.9805 22.3203 24.5898C22.7891 24.1914 23.0234 23.6445 23.0234 22.9492C23.0234 21.3867 22.2148 20.5938 20.5977 20.5703H17.375ZM17.375 18.0859H19.9766C21.75 18.0547 22.6367 17.3477 22.6367 15.9648C22.6367 15.1914 22.4102 14.6367 21.957 14.3008C21.5117 13.957 20.8047 13.7852 19.8359 13.7852H17.375V18.0859Z" fill="white"/>
</svg>
